<svg width="163" height="16" viewBox="0 0 163 16" fill="none" xmlns="http://www.w3.org/2000/svg">
<g clip-path="url(#clip0_6006_56)">
<path d="M15.8486 6.3999H13.5059V14.4819H15.8486V6.3999Z" fill="white"/>
<path d="M15.8486 3.34424H13.5059V5.24863H15.8486V3.34424Z" fill="white"/>
<path d="M9.38667 3.34424H8.61479L5.86085 11.032L3.1263 3.34424H2.34279H0V14.4818H2.34279V7.22326L5.13551 14.4818H6.62497L9.38667 7.23107V14.4818H11.7256V3.34424H9.38667Z" fill="white"/>
<path d="M19.7352 7.80109V6.41572H17.3925V14.4977H19.7352V9.81865C19.7352 9.81865 19.8089 8.04694 22.4271 8.22646V6.40011C22.4271 6.40011 20.3869 6.33377 19.7352 7.80109Z" fill="white"/>
<path d="M27.1166 6.41553C23.6955 6.41553 23.5714 8.37845 23.5714 9.0926H25.4953C25.4953 9.0926 25.4681 7.78919 27.0507 7.78919C28.6332 7.78919 28.5905 8.72187 28.5905 8.83114C28.5905 8.94041 28.5634 9.67016 26.465 9.88089C24.3665 10.0916 23.2068 10.6965 23.2068 12.3004C23.2068 13.9043 24.448 14.4819 26.0577 14.4819C27.6674 14.4819 28.5944 13.4946 28.5944 13.4946V14.4819H30.5571V8.39016C30.5571 8.39016 30.5416 6.41553 27.1205 6.41553H27.1166ZM28.4897 11.2233C28.4897 11.6331 28.3927 12.0467 28.1794 12.3941C27.935 12.7921 27.5161 13.2409 26.7675 13.3619C26.1547 13.4594 25.8056 13.2448 25.6078 12.9794C25.2781 12.5385 25.3362 11.9063 25.7164 11.516C26.1004 11.1219 26.8878 10.7082 28.4936 10.6731V11.2194L28.4897 11.2233Z" fill="white"/>
<path d="M36.0417 13.0067C34.7384 13.0067 33.9937 12.2575 33.9937 11.0399H39.8312C39.8312 11.0399 39.7614 6.41553 35.8788 6.41553C31.9961 6.41553 31.9961 10.3375 31.9961 10.9463C31.9961 11.555 32.5314 14.7355 35.9137 14.7355C39.296 14.7355 39.8312 11.8828 39.8312 11.8828H37.5971C37.5971 11.8828 37.3411 13.0067 36.0378 13.0067H36.0417ZM35.8089 7.95309C37.6475 7.95309 37.6475 9.88089 37.6475 9.88089H33.9743C33.9743 9.88089 33.9743 7.95309 35.8128 7.95309H35.8089Z" fill="white"/>
<path d="M75.842 13.0067C74.5387 13.0067 73.794 12.2575 73.794 11.0399H79.6315C79.6315 11.0399 79.5617 6.41553 75.6791 6.41553C71.7964 6.41553 71.7964 10.3375 71.7964 10.9463C71.7964 11.555 72.3317 14.7355 75.714 14.7355C79.0963 14.7355 79.6315 11.8828 79.6315 11.8828H77.3974C77.3974 11.8828 77.1414 13.0067 75.8381 13.0067H75.842ZM75.6092 7.95309C77.4478 7.95309 77.4478 9.88089 77.4478 9.88089H73.7746C73.7746 9.88089 73.7746 7.95309 75.6131 7.95309H75.6092Z" fill="white"/>
<path d="M50.7151 3.36768H48.6904L44.4121 14.4857H46.6463L47.6005 11.793H51.6228L52.5304 14.4857H55.0439L50.719 3.36768H50.7151ZM48.1513 10.2399L49.6213 6.1267L51.072 10.236L48.1513 10.2438V10.2399Z" fill="white"/>
<path d="M55.3813 11.7853H57.4293C57.4293 11.7853 57.4293 13.3619 59.1205 13.3619C60.8116 13.3619 60.6177 12.2887 60.6177 12.0897C60.6177 11.8906 60.0475 11.3716 58.9615 11.157C57.8754 10.9423 55.5792 10.4038 55.5792 8.73747C55.5792 7.07113 56.898 6.40771 58.946 6.40771C60.994 6.40771 62.5261 7.69942 62.5261 8.64771H60.2453C60.2453 8.64771 60.1018 7.69942 58.9537 7.69942C57.8056 7.69942 57.7707 8.36284 57.7707 8.6321C57.7707 8.90137 57.9491 9.52967 60.6914 9.88479C63.4337 10.2399 63.3445 14.4819 59.4075 14.4819C55.4706 14.4819 55.3813 11.7853 55.3813 11.7853Z" fill="white"/>
<path d="M63.5616 11.7853H65.6096C65.6096 11.7853 65.6096 13.3619 67.3008 13.3619C68.9919 13.3619 68.798 12.2887 68.798 12.0897C68.798 11.8906 68.2278 11.3716 67.1418 11.157C66.0557 10.9423 63.7595 10.4038 63.7595 8.73747C63.7595 7.07113 65.0783 6.40771 67.1263 6.40771C69.1743 6.40771 70.7064 7.69942 70.7064 8.64771H68.4256C68.4256 8.64771 68.2821 7.69942 67.134 7.69942C65.9859 7.69942 65.951 8.36284 65.951 8.6321C65.951 8.90137 66.1294 9.52967 68.8717 9.88479C71.614 10.2399 71.5248 14.4819 67.5878 14.4819C63.6509 14.4819 63.5616 11.7853 63.5616 11.7853Z" fill="white"/>
<path d="M85.2907 8.1169V6.56763H83.778V4.07397H81.4352V6.56373H80.1241V8.113H81.4352V12.1559C81.4352 12.1559 81.1637 14.4818 82.9324 14.4818H85.2907V12.831C85.2907 12.831 83.778 13.1549 83.778 12.1598V8.1169H85.2907Z" fill="white"/>
<path d="M90.655 9.1394C90.655 11.9336 92.7185 14.7355 96.2444 14.7355C99.7702 14.7355 99.6228 13.6662 99.6228 13.6662L98.9867 12.156C98.9867 12.156 92.8698 14.197 92.8698 9.2877C92.8698 4.37843 96.6594 4.79599 98.3854 5.17453L99.1341 3.70331C99.1341 3.70331 91.0662 1.1355 90.655 9.1394Z" fill="white"/>
<path d="M111.554 3.31323V14.482H113.808V5.55713L118.222 14.482H121.352V3.31323H119.226V12.2108L114.572 3.31323H111.554Z" fill="white"/>
<path d="M132.212 3.31323H123.66V5.23714H126.549V14.482H128.896V5.23714H131.223L132.212 3.31323Z" fill="white"/>
<path d="M136.347 9.72104H140.296V7.71518H137.007L136.347 8.51909V5.20982H140.079L140.874 3.34055H136.347V3.31323H134.074V3.34055V5.20982V12.6127V13.3347V14.482H140.079L140.874 12.6127H136.347V9.72104Z" fill="white"/>
<path d="M104.312 9.72104H108.261V7.71518H104.972L104.312 8.51909V5.20982H108.044L108.839 3.34055H104.312V3.31323H102.039V3.34055V5.20982V12.6127V13.3347V14.482H108.044L108.839 12.6127H104.312V9.72104Z" fill="white"/>
<path d="M150.268 12.6127L148.433 9.66636C149.547 9.34636 150.862 8.54636 150.862 6.57173C150.862 3.14148 147.584 3.31319 147.584 3.31319H143.55V14.482H145.823V9.88099H146.261L149.077 14.482H151.102L152.048 12.6127H150.264H150.268ZM145.823 8.32392V5.20977H147.363C147.363 5.20977 148.992 5.16295 148.992 6.59514C148.992 8.02734 147.716 8.32002 147.409 8.32002H145.827L145.823 8.32392Z" fill="white"/>
<path d="M154.919 3.02175L157.665 0.543701H158.592V4.94955C158.592 4.94955 157.836 5.03541 157.836 6.33882C157.836 7.64224 158.592 7.69297 158.592 7.69297V12.2939H155.12V11.732L157.3 10.8032V2.69004L156.552 3.02175H154.919Z" fill="white"/>
<path d="M159.003 0.543701H160.128V10.8032L162.063 11.732V12.2939H159.003V7.46273C159.003 7.46273 158.239 7.29102 158.239 6.3076C158.239 5.32419 158.596 5.24224 159.003 5.05882V0.543701Z" fill="white"/>
</g>
<defs>
<clipPath id="clip0_6006_56">
<rect width="162.133" height="16" fill="white"/>
</clipPath>
</defs>
</svg>
